name rise37.2698peak67.6939fall79.5734.mot
datacolumns 19
datarows 11
range 5.17165200000000 5.18832800000000
endheader
time	ground_force1_vx	ground_force1_vy	ground_force1_vz	ground_force1_px	ground_force1_py	ground_force1_pz	ground_force2_vx	ground_force2_vy	ground_force2_vz	ground_force2_px	ground_force2_py	ground_force2_pz	ground_torque1_x	ground_torque1_y	ground_torque1_z	ground_torque2_x	ground_torque2_y	ground_torque2_z	
5.17165200000000	-47.42462400000000	760.83532700000001	61.13584700000000	0.08975900000000	0.00000000000000	0.13823600000000	-11.10350500000000	92.33616700000000	11.37835600000000	0.34389900000000	0.00000000000000	-0.06547500000000	0.00000000000000	22.43570900000000	0.00000000000000	0.00000000000000	6.73576600000000	0.00000000000000	
5.17331500000000	-47.60676800000000	757.92218400000002	60.74131200000000	0.08949200000000	0.00000000000000	0.13816900000000	-10.80378700000000	96.70498400000000	11.34080900000000	0.34596900000000	0.00000000000000	-0.06580100000000	0.00000000000000	22.36517100000000	0.00000000000000	0.00000000000000	6.79303800000000	0.00000000000000	
5.17497900000000	-47.79479000000000	754.93820900000003	60.32895200000000	0.08923300000000	0.00000000000000	0.13809900000000	-10.43762300000000	101.06129799999999	11.25656400000000	0.34793400000000	0.00000000000000	-0.06612000000000	0.00000000000000	22.29506200000000	0.00000000000000	0.00000000000000	6.82593500000000	0.00000000000000	
5.17664900000000	-47.98895500000000	751.88408400000003	59.89896200000000	0.08898000000000	0.00000000000000	0.13802400000000	-10.01805400000000	105.45505900000001	11.13648800000000	0.34979700000000	0.00000000000000	-0.06643200000000	0.00000000000000	22.22543800000000	0.00000000000000	0.00000000000000	6.84017900000000	0.00000000000000	
5.17831600000000	-48.18952800000000	748.76042299999995	59.45156700000000	0.08873200000000	0.00000000000000	0.13794500000000	-9.55580000000000	109.92856700000000	10.98947200000000	0.35155900000000	0.00000000000000	-0.06673900000000	0.00000000000000	22.15635300000000	0.00000000000000	0.00000000000000	6.84049500000000	0.00000000000000	
5.17999200000000	-48.39677300000000	745.56777299999999	58.98702100000000	0.08848900000000	0.00000000000000	0.13786200000000	-9.05896400000000	114.51483600000000	10.82217700000000	0.35322200000000	0.00000000000000	-0.06704200000000	0.00000000000000	22.08786000000000	0.00000000000000	0.00000000000000	6.83044000000000	0.00000000000000	
5.18164600000000	-48.61095000000000	742.30660200000000	58.50560800000000	0.08824900000000	0.00000000000000	0.13777500000000	-8.53298600000000	119.23691400000000	10.63897100000000	0.35479000000000	0.00000000000000	-0.06734000000000	0.00000000000000	22.02001000000000	0.00000000000000	0.00000000000000	6.81234700000000	0.00000000000000	
5.18331700000000	-48.83230800000000	738.97729300000003	58.00763900000000	0.08801300000000	0.00000000000000	0.13768300000000	-7.98079600000000	124.10804800000000	10.44206300000000	0.35626300000000	0.00000000000000	-0.06763500000000	0.00000000000000	21.95285300000000	0.00000000000000	0.00000000000000	6.78737400000000	0.00000000000000	
5.18498500000000	-49.06108700000000	735.58014700000001	57.49345100000000	0.08777800000000	0.00000000000000	0.13758700000000	-7.40313300000000	129.13252000000000	10.23176500000000	0.35764500000000	0.00000000000000	-0.06792600000000	0.00000000000000	21.88643700000000	0.00000000000000	0.00000000000000	6.75563500000000	0.00000000000000	
5.18664600000000	-49.29751000000000	732.11536799999999	56.96340800000000	0.08754500000000	0.00000000000000	0.13748600000000	-6.79896400000000	134.30695700000001	10.00684300000000	0.35893800000000	0.00000000000000	-0.06821500000000	0.00000000000000	21.82080500000000	0.00000000000000	0.00000000000000	6.71638100000000	0.00000000000000	
5.18832800000000	-49.54178000000000	728.58306800000003	56.41789500000000	0.08731200000000	0.00000000000000	0.13738100000000	-6.16596500000000	139.62196000000000	9.76492800000000	0.36014300000000	0.00000000000000	-0.06850200000000	0.00000000000000	21.75600100000000	0.00000000000000	0.00000000000000	6.66822500000000	0.00000000000000	
